# xmcd
#
# Track frame offsets: 
#        150
#        14604
#        31865
#        51092
#        65005
#        88223
#        108702
#        130773
#        149496
#        171660
#        187826
#        202594
#
# Disc length: 2914 seconds
#
# Revision: 0
# Processed by: cddbd v1.5.2PL0 Copyright (c) Steve Scherf et al.
# Submitted via: ExactAudioCopy v1.0b3
#
DISCID=ac0b600c
DTITLE=The Rolling Stones  - therollingstonesinstoresampler
DYEAR=2005
DGENRE=Rock
TTITLE0=Rough Justice
TTITLE1=Brown Sugar
TTITLE2=Let Me Down Slow
TTITLE3=Happy
TTITLE4=Streets Of Love
TTITLE5=Angie
TTITLE6=Rain Fall Down
TTITLE7=It's Only Rock'n Roll
TTITLE8=Laugh I Nearly Died
TTITLE9=Miss You
TTITLE10=This Place Is Empty
TTITLE11=Start Me Up
EXTD=
EXTT0=
EXTT1=
EXTT2=
EXTT3=
EXTT4=
EXTT5=
EXTT6=
EXTT7=
EXTT8=
EXTT9=
EXTT10=
EXTT11=
PLAYORDER=
